<svg xmlns="http://www.w3.org/2000/svg" xmlns:xlink="http://www.w3.org/1999/xlink" xmlns:lucid="lucid" width="1761" height="1388"><g transform="translate(-249 -40)" lucid:page-tab-id="0_0"><path d="M0 0h3456v2656H0z" fill="#fff"/><path d="M709 743l-24.05-.98-15.57.97 25.7 35.1L709 743z" fill="#fad791"/><path d="M709 728.48l-24.05.97-15.57-.97 25.7-35.1 13.9 35.1zM610 728.4l24.04 1.05 15.57-1-25.7-34.9L610 728.4z" fill="#624a1e"/><path d="M610 743l24.04-.98 15.57.97-25.7 35.14L610 743z" fill="#fad791"/><path d="M695.1 727.06l13.9 1.4v-28.1l-13.9-7v33.7z" fill="#d9a741"/><path d="M669.38 700.35l25.7-6.98v33.7l-25.7 1.4v-28.12z" fill="#876929"/><path d="M659.5 696.25l27.84 9.14v13.9l-27.84-4.94v-18.1z" fill="#d9a741"/><path d="M646.96 716.66l12.76-2.26 27.62 4.9-12.36 1.36-28.02-4z" fill="#624a1e"/><path d="M623.9 727.04L610 728.4v-28.2l13.9-6.87v33.7z" fill="#876929"/><path d="M649.6 700.32l-25.7-7v33.73l25.7 1.4v-28.13z" fill="#d9a741"/><path d="M659.5 696.25l-27.85 9.14v13.9l27.84-4.94v-18.1z" fill="#876929"/><path d="M672.03 716.66l-12.76-2.26-27.62 4.9 12.36 1.36 28.03-4z" fill="#624a1e"/><path d="M695.1 744.4L709 743v28.12l-13.9 6.98v-33.7z" fill="#d9a741"/><path d="M669.38 771.12l25.7 6.98v-33.7l-25.7-1.4v28.12z" fill="#876929"/><path d="M659.5 775.2l27.84-9.14v-13.9l-27.84 4.94v18.1z" fill="#d9a741"/><path d="M646.96 754.8l12.76 2.24 27.62-4.88-12.36-1.35-28.02 4z" fill="#fad791"/><path d="M623.9 744.4L610 743v28.1l13.9 7.02V744.4z" fill="#876929"/><path d="M649.6 771.13l-25.7 7V744.4l25.7-1.4v28.13z" fill="#d9a741"/><path d="M659.5 775.2l-27.85-9.14v-13.9l27.84 4.94v18.1z" fill="#876929"/><path d="M672.03 754.8l-12.76 2.24-27.62-4.88L644 750.8l28.03 4z" fill="#fad791"/><path d="M644.7 788.06l14.8 7.44 8.2-4.08 6.6-108.48-14.8-7.44-14.8 7.44v105.12z" fill="#876929"/><path d="M674.3 788.06l-14.8 7.44v-120l14.8 7.44v105.12z" fill="#d9a741"/><use xlink:href="#a" transform="matrix(1,0,0,1,610,795.4999999999999) translate(16.525 14.4)"/><use xlink:href="#b" transform="matrix(1,0,0,1,610,795.4999999999999) translate(35 36)"/><use xlink:href="#c" transform="matrix(1,0,0,1,610,795.4999999999999) translate(14.024999999999999 57.6)"/><path d="M401.18 771.83h-25.34c-1.36 0-2.45 1.36-2.45 3.04h30.2c0-1.67-1.1-3.03-2.42-3.04zM375.85 777.9h25.35c1.33 0 2.42-1.36 2.42-3.02h-30.2c.02 1.67 1.1 3 2.43 3z" fill-opacity="0"/><path d="M403.6 774.88c0 1.68-1.05 3.02-2.4 3.02h-25.36c-1.36 0-2.4-1.33-2.48-3.02H330v3.02c0 4.2 2.72 7.6 6.08 7.6h67.83c3.37 0 6.1-3.4 6.1-7.6v-3.02zM407.3 738.8l-3.9 5.37c0 1.92-1.28 3.45-2.8 3.45h-61.3c-1.5-.02-2.78-1.55-2.78-3.45l-3.27-5.37h-3.2v5.37c0 6.34 4.16 11.48 9.26 11.46h61.3c5.1.02 9.26-5.12 9.26-11.46v-5.37z" fill="#7d7c7c"/><path d="M403.92 759.8c3.28-.02 6.08 3.33 6.08 7.52v6.14c0 4.2-2.72 7.57-6.08 7.57h-67.84c-3.36 0-6.08-3.38-6.08-7.56V767.35c0-4.15 2.72-7.55 6.08-7.53zm-2.72 13.65c1.36 0 2.4-1.36 2.4-3.04 0-1.66-1.04-3.02-2.4-3.02h-25.36c-1.36 0-2.4 1.36-2.4 3.03 0 1.7 1.04 3.05 2.4 3.05h25.36M400.6 685.5c5.1 0 9.26 5.12 9.26 11.43v42.82c0 6.3-4.15 11.43-9.25 11.43h-61.3c-5.1 0-9.24-5.12-9.24-11.43v-42.82c0-6.3 4.15-11.43 9.25-11.43zm2.8 54.25v-42.82c0-1.9-1.28-3.42-2.8-3.42h-61.3c-1.5 0-2.78 1.52-2.78 3.43v42.82c0 1.84 1.28 3.42 2.8 3.42h61.3c1.5 0 2.78-1.5 2.78-3.42" fill="#d2d3d3"/><use xlink:href="#d" transform="matrix(1,0,0,1,330,785.4999999999999) translate(19.05 14.4)"/><g filter="url(#e)"><path d="M280 505.5c0-1.1.9-2 2-2h176c1.1 0 2 .9 2 2v56c0 1.1-.9 2-2 2H282c-1.1 0-2-.9-2-2z" fill="#fff"/><path d="M310 513.5c-5.52 0-10.24 1.95-14.14 5.86-3.9 3.9-5.86 8.62-5.86 14.14 0 5.52 1.95 10.24 5.86 14.14 3.9 3.9 8.62 5.86 14.14 5.86 5.52 0 10.24-1.95 14.14-5.86 3.9-3.9 5.86-8.62 5.86-14.14 0-5.52-1.95-10.24-5.86-14.14-3.9-3.9-8.62-5.86-14.14-5.86zm-7.5 9.4c2.34-1.24 4.84-1.87 7.5-1.87s5.16.62 7.5 1.87c.17.04.3.13.4.28.1.16.12.32.08.5-.04.16-.13.3-.28.4-.16.08-.32.1-.5.07-.1 0-.2-.02-.28-.07-2.17-1.18-4.5-1.77-6.96-1.77s-4.8.6-6.96 1.78c-.16.06-.32.06-.48 0-.17-.06-.28-.18-.35-.34-.07-.16-.07-.32 0-.48.06-.16.17-.28.33-.35zm5.2 22.65c-.13.13-.28.18-.46.2-.1 0-.16-.03-.24-.06-.08-.04-.14-.1-.2-.15-1.02-.96-1.85-2.06-2.5-3.3-.9-1.7-1.34-3.5-1.3-5.43.04-1.9.75-3.5 2.1-4.8 1.38-1.3 3-1.96 4.9-1.93 1.9-.05 3.55.58 4.93 1.9 1.38 1.3 2.1 2.92 2.15 4.82 0 .18-.06.32-.2.45-.1.12-.26.18-.43.18-.17 0-.32-.06-.44-.18-.12-.13-.18-.27-.18-.45-.05-1.56-.64-2.87-1.78-3.94-1.13-1.07-2.48-1.6-4.04-1.54-1.56-.05-2.9.47-4.04 1.54-1.14 1.07-1.73 2.38-1.78 3.94-.04 1.7.35 3.3 1.16 4.82.6 1.13 1.38 2.14 2.3 3.02.13.12.2.27.2.44 0 .18-.06.32-.18.45zm10-2.27c-.5.1-1 .14-1.5.14-1.42.04-2.7-.33-3.9-1.1-.9-.62-1.63-1.4-2.16-2.38-.53-.97-.8-2-.8-3.12 0-.17.06-.3.18-.44.12-.12.27-.18.44-.18.18 0 .32.06.44.18.13.13.2.27.2.44 0 .9.22 1.74.64 2.53.43.8 1.02 1.43 1.77 1.93.98.62 2.04.92 3.2.88.4 0 .82-.05 1.24-.12.17-.04.32 0 .47.1.15.1.24.22.28.4.03.17 0 .32-.1.47-.1.15-.23.24-.4.28zm-1.25-2.8c-.67.03-1.3-.12-1.9-.45-.6-.32-1.06-.77-1.4-1.35-.35-.57-.54-1.2-.55-1.87-.06-.66-.35-1.22-.84-1.67-.5-.45-1.1-.67-1.76-.67-.67 0-1.26.22-1.76.67-.5.45-.78 1-.84 1.68 0 1.07.2 2.1.6 3.07.4.97.98 1.84 1.74 2.58 1.12 1.15 2.46 1.9 4 2.3.18.05.3.14.38.3.1.14.1.3.07.46-.04.15-.12.26-.22.35-.1.1-.24.13-.38.14h-.16c-1.8-.44-3.35-1.32-4.65-2.64-.88-.86-1.55-1.86-2.02-3-.48-1.12-.7-2.3-.7-3.52 0-1.07.37-1.97 1.12-2.72.76-.76 1.66-1.13 2.72-1.13 1.07 0 1.98.36 2.73 1.12.75.75 1.13 1.65 1.13 2.72.06.66.34 1.22.84 1.68.5.45 1.08.68 1.76.68.67 0 1.25-.23 1.75-.68.5-.46.78-1.02.85-1.68-.08-2.42-1-4.46-2.74-6.12-1.74-1.67-3.82-2.48-6.24-2.43-1.74-.04-3.36.4-4.85 1.3-1.5.9-2.63 2.14-3.4 3.7-.53 1.1-.77 2.26-.75 3.5 0 1.54.28 3.05.84 4.5.04.1.05.2.03.32 0 .1-.06.2-.13.3-.07.08-.16.14-.26.18-.16.06-.32.06-.48-.02-.16-.07-.26-.18-.32-.34-.62-1.62-.92-3.28-.92-5-.02-1.42.26-2.77.85-4.05.9-1.77 2.2-3.16 3.9-4.18 1.7-1.02 3.52-1.52 5.5-1.5 2.77-.06 5.16.86 7.18 2.77 2 1.9 3.05 4.24 3.13 7 0 .7-.18 1.32-.54 1.9-.35.58-.83 1.02-1.42 1.34-.6.32-1.24.47-1.92.45zm4.56-10c-.08.07-.18.1-.3.12-.1 0-.2 0-.3-.05-.1-.05-.2-.12-.26-.2-1.12-1.6-2.53-2.8-4.24-3.7-1.85-.9-3.8-1.37-5.88-1.37-2.06 0-4.02.46-5.87 1.38-1.73.9-3.14 2.15-4.25 3.75-.05.1-.12.16-.2.2-.1.06-.2.08-.3.08-.12 0-.24-.04-.35-.12-.1-.06-.16-.15-.2-.25-.06-.1-.07-.2-.06-.3 0-.12.04-.22.1-.3 1.22-1.76 2.8-3.12 4.7-4.1 2.02-1 4.16-1.52 6.43-1.52 2.27 0 4.42.5 6.45 1.52 1.9.97 3.46 2.32 4.68 4.06.1.14.1.3.08.46-.03.16-.12.28-.25.38z" fill="#757575"/><use xlink:href="#f" transform="matrix(1,0,0,1,340,523.5) translate(0 16.69921875)"/></g><path d="M950 675.5h80v80h-80v-80z" stroke="#fff" stroke-opacity="0" stroke-width="2" fill="#d86613"/><path d="M1014.53 742.17h-13.14c-.44 0-.78-.22-.95-.6l-18.6-38.87h-7.86c-.6 0-1.08-.48-1.08-1.07V689.9c0-.6.47-1.07 1.07-1.07h16.42c.43 0 .77.22.94.6l18.52 38.87h4.65c.6 0 1.07.48 1.07 1.07v11.73c0 .6-.47 1.07-1.07 1.07zm-12.46-2.14h11.4v-9.6h-4.27c-.43 0-.77-.2-.94-.58l-18.52-38.88h-14.68v9.6h7.47c.42 0 .76.2.98.58z" stroke="#fff" stroke-opacity="0" stroke-width="2" fill="#fff"/><path d="M979.3 742.17h-13.85c-.38 0-.7-.2-.92-.5-.2-.35-.2-.74-.05-1.06L979 710.3c.16-.4.54-.6.94-.6.43 0 .78.2.97.57l6.95 14.3c.16.28.16.6 0 .93l-7.58 15.98c-.14.43-.52.7-.97.7zm-12.15-2.15h11.5l7.05-14.9-5.74-11.93z" stroke="#fff" stroke-opacity="0" stroke-width="2" fill="#fff"/><use xlink:href="#g" transform="matrix(1,0,0,1,920,764.4999999999999) translate(18.574999999999996 14.4)"/><use xlink:href="#h" transform="matrix(1,0,0,1,920,764.4999999999999) translate(52.574999999999996 14.4)"/><path d="M950 560h80v80h-80v-80z" stroke="#fff" stroke-opacity="0" stroke-width="2" fill="#d86613"/><path d="M1014.53 626.67h-13.14c-.44 0-.78-.22-.95-.6l-18.6-38.87h-7.86c-.6 0-1.08-.48-1.08-1.07V574.4c0-.6.47-1.07 1.07-1.07h16.42c.43 0 .77.22.94.6l18.52 38.87h4.65c.6 0 1.07.48 1.07 1.07v11.73c0 .6-.47 1.07-1.07 1.07zm-12.46-2.14h11.4v-9.6h-4.27c-.43 0-.77-.2-.94-.58l-18.52-38.88h-14.68v9.6h7.47c.42 0 .76.2.98.58z" stroke="#fff" stroke-opacity="0" stroke-width="2" fill="#fff"/><path d="M979.3 626.67h-13.85c-.38 0-.7-.2-.92-.5-.2-.35-.2-.74-.05-1.06L979 594.8c.16-.4.54-.6.94-.6.43 0 .78.2.97.57l6.95 14.3c.16.28.16.6 0 .93l-7.58 15.98c-.14.43-.52.7-.97.7zm-12.15-2.15h11.5l7.05-14.9-5.74-11.93z" stroke="#fff" stroke-opacity="0" stroke-width="2" fill="#fff"/><use xlink:href="#g" transform="matrix(1,0,0,1,920,649) translate(4.549999999999997 14.4)"/><use xlink:href="#i" transform="matrix(1,0,0,1,920,649) translate(38.55 14.4)"/><path d="M950 839.13h80v80h-80v-80z" stroke="#fff" stroke-opacity="0" stroke-width="2" fill="#d86613"/><path d="M1014.53 905.8h-13.14c-.44 0-.78-.22-.95-.6l-18.6-38.88h-7.86c-.6 0-1.08-.48-1.08-1.06v-11.74c0-.58.47-1.06 1.07-1.06h16.42c.43 0 .77.2.94.58l18.52 38.88h4.65c.6 0 1.07.5 1.07 1.07v11.73c0 .58-.47 1.06-1.07 1.06zm-12.46-2.14h11.4v-9.6h-4.27c-.43 0-.77-.2-.94-.6l-18.52-38.87h-14.68v9.6h7.47c.42 0 .76.2.98.58z" stroke="#fff" stroke-opacity="0" stroke-width="2" fill="#fff"/><path d="M979.3 905.8h-13.85c-.38 0-.7-.2-.92-.5-.2-.35-.2-.74-.05-1.07l14.52-30.3c.16-.4.54-.62.94-.62.43 0 .78.24.97.6l6.95 14.3c.16.28.16.6 0 .93l-7.58 15.98c-.14.43-.52.7-.97.7zm-12.15-2.15h11.5l7.05-14.9-5.74-11.93z" stroke="#fff" stroke-opacity="0" stroke-width="2" fill="#fff"/><use xlink:href="#g" transform="matrix(1,0,0,1,920,928.125) translate(19.074999999999996 14.4)"/><use xlink:href="#j" transform="matrix(1,0,0,1,920,928.125) translate(53.074999999999996 14.4)"/><path d="M950 1240h80v80h-80v-80z" stroke="#fff" stroke-opacity="0" stroke-width="2" fill="#d86613"/><path d="M1014.53 1306.67h-13.14c-.44 0-.78-.22-.95-.6l-18.6-38.87h-7.86c-.6 0-1.08-.48-1.08-1.07v-11.73c0-.6.47-1.07 1.07-1.07h16.42c.43 0 .77.22.94.6l18.52 38.87h4.65c.6 0 1.07.48 1.07 1.07v11.73c0 .6-.47 1.07-1.07 1.07zm-12.46-2.14h11.4v-9.6h-4.27c-.43 0-.77-.2-.94-.58l-18.52-38.88h-14.68v9.6h7.47c.42 0 .76.2.98.58z" stroke="#fff" stroke-opacity="0" stroke-width="2" fill="#fff"/><path d="M979.3 1306.67h-13.85c-.38 0-.7-.2-.92-.5-.2-.35-.2-.74-.05-1.06l14.52-30.3c.16-.4.54-.6.94-.6.43 0 .78.2.97.57l6.95 14.3c.16.28.16.6 0 .93l-7.58 15.98c-.14.43-.52.7-.97.7zm-12.15-2.15h11.5l7.05-14.9-5.74-11.93z" stroke="#fff" stroke-opacity="0" stroke-width="2" fill="#fff"/><use xlink:href="#k" transform="matrix(1,0,0,1,920,1329) translate(11.124999999999993 14.4)"/><use xlink:href="#l" transform="matrix(1,0,0,1,920,1329) translate(70.025 14.4)"/><path d="M775.94 708h75v75h-75v-75z" stroke="#fff" stroke-opacity="0" stroke-width="2" fill="#d86613"/><path d="M836.44 770.5H824.1c-.4 0-.7-.2-.87-.55L805.8 733.5h-7.37c-.56 0-1-.45-1-1v-11c0-.55.44-1 1-1h15.4c.4 0 .72.2.88.55l17.38 36.45h4.36c.56 0 1 .45 1 1v11c0 .55-.44 1-1 1zm-11.7-2h10.7v-9h-4c-.4 0-.72-.2-.88-.55L813.2 722.5h-13.77v9h7c.4 0 .72.2.92.55z" stroke="#fff" stroke-opacity="0" stroke-width="2" fill="#fff"/><path d="M803.4 770.5h-12.98c-.35 0-.66-.18-.86-.46-.2-.33-.2-.7-.05-1l13.62-28.4c.16-.38.5-.6.9-.6s.72.22.9.56l6.5 13.4c.16.27.16.57 0 .88l-7.1 14.98c-.14.4-.5.64-.9.64zm-11.4-2h10.8l6.6-14-5.37-11.16z" stroke="#fff" stroke-opacity="0" stroke-width="2" fill="#fff"/><use xlink:href="#m" transform="matrix(1,0,0,1,745.9375,791.9999999999999) translate(26.574999999999996 14.4)"/><path d="M950 1100h80v80h-80v-80z" stroke="#fff" stroke-opacity="0" stroke-width="2" fill="#d86613"/><path d="M1014.53 1166.67h-13.14c-.44 0-.78-.22-.95-.6l-18.6-38.87h-7.86c-.6 0-1.08-.48-1.08-1.07v-11.73c0-.6.47-1.07 1.07-1.07h16.42c.43 0 .77.22.94.6l18.52 38.87h4.65c.6 0 1.07.48 1.07 1.07v11.73c0 .6-.47 1.07-1.07 1.07zm-12.46-2.14h11.4v-9.6h-4.27c-.43 0-.77-.2-.94-.58l-18.52-38.88h-14.68v9.6h7.47c.42 0 .76.2.98.58z" stroke="#fff" stroke-opacity="0" stroke-width="2" fill="#fff"/><path d="M979.3 1166.67h-13.85c-.38 0-.7-.2-.92-.5-.2-.35-.2-.74-.05-1.06l14.52-30.3c.16-.4.54-.6.94-.6.43 0 .78.2.97.57l6.95 14.3c.16.28.16.6 0 .93l-7.58 15.98c-.14.43-.52.7-.97.7zm-12.15-2.15h11.5l7.05-14.9-5.74-11.93z" stroke="#fff" stroke-opacity="0" stroke-width="2" fill="#fff"/><use xlink:href="#n" transform="matrix(1,0,0,1,920,1189) translate(43.05 14.4)"/><use xlink:href="#o" transform="matrix(1,0,0,1,920,1189) translate(26.049999999999997 36)"/><path d="M950 300h80v80h-80v-80z" stroke="#fff" stroke-opacity="0" stroke-width="2" fill="#d86613"/><path d="M1014.53 366.67h-13.14c-.44 0-.78-.22-.95-.6l-18.6-38.87h-7.86c-.6 0-1.08-.48-1.08-1.07V314.4c0-.6.47-1.07 1.07-1.07h16.42c.43 0 .77.22.94.6l18.52 38.87h4.65c.6 0 1.07.48 1.07 1.07v11.73c0 .6-.47 1.07-1.07 1.07zm-12.46-2.14h11.4v-9.6h-4.27c-.43 0-.77-.2-.94-.58l-18.52-38.88h-14.68v9.6h7.47c.42 0 .76.2.98.58z" stroke="#fff" stroke-opacity="0" stroke-width="2" fill="#fff"/><path d="M979.3 366.67h-13.85c-.38 0-.7-.2-.92-.5-.2-.35-.2-.74-.05-1.06L979 334.8c.16-.4.54-.6.94-.6.43 0 .78.2.97.57l6.95 14.3c.16.28.16.6 0 .93l-7.58 15.98c-.14.43-.52.7-.97.7zm-12.15-2.15h11.5l7.05-14.9-5.74-11.93z" stroke="#fff" stroke-opacity="0" stroke-width="2" fill="#fff"/><use xlink:href="#g" transform="matrix(1,0,0,1,920,389) translate(10.625 14.4)"/><use xlink:href="#p" transform="matrix(1,0,0,1,920,389) translate(44.625 14.4)"/><use xlink:href="#q" transform="matrix(1,0,0,1,920,389) translate(106.525 14.4)"/><path d="M950 960h80v80h-80v-80z" stroke="#fff" stroke-opacity="0" stroke-width="2" fill="#d86613"/><path d="M1014.53 1026.67h-13.14c-.44 0-.78-.22-.95-.6l-18.6-38.87h-7.86c-.6 0-1.08-.48-1.08-1.07V974.4c0-.6.47-1.07 1.07-1.07h16.42c.43 0 .77.22.94.6l18.52 38.87h4.65c.6 0 1.07.48 1.07 1.07v11.73c0 .6-.47 1.07-1.07 1.07zm-12.46-2.14h11.4v-9.6h-4.27c-.43 0-.77-.2-.94-.58l-18.52-38.88h-14.68v9.6h7.47c.42 0 .76.2.98.58z" stroke="#fff" stroke-opacity="0" stroke-width="2" fill="#fff"/><path d="M979.3 1026.67h-13.85c-.38 0-.7-.2-.92-.5-.2-.35-.2-.74-.05-1.06L979 994.8c.16-.4.54-.6.94-.6.43 0 .78.2.97.57l6.95 14.3c.16.28.16.6 0 .93l-7.58 15.98c-.14.43-.52.7-.97.7zm-12.15-2.15h11.5l7.05-14.9-5.74-11.93z" stroke="#fff" stroke-opacity="0" stroke-width="2" fill="#fff"/><use xlink:href="#k" transform="matrix(1,0,0,1,920,1049) translate(10.624999999999993 14.4)"/><use xlink:href="#r" transform="matrix(1,0,0,1,920,1049) translate(69.525 14.4)"/><path d="M950 423.5h80v80h-80v-80z" stroke="#fff" stroke-opacity="0" stroke-width="2" fill="#d86613"/><path d="M1014.53 490.17h-13.14c-.44 0-.78-.22-.95-.6l-18.6-38.87h-7.86c-.6 0-1.08-.48-1.08-1.07V437.9c0-.6.47-1.07 1.07-1.07h16.42c.43 0 .77.22.94.6l18.52 38.87h4.65c.6 0 1.07.48 1.07 1.07v11.73c0 .6-.47 1.07-1.07 1.07zm-12.46-2.14h11.4v-9.6h-4.27c-.43 0-.77-.2-.94-.58l-18.52-38.88h-14.68v9.6h7.47c.42 0 .76.2.98.58z" stroke="#fff" stroke-opacity="0" stroke-width="2" fill="#fff"/><path d="M979.3 490.17h-13.85c-.38 0-.7-.2-.92-.5-.2-.35-.2-.74-.05-1.06L979 458.3c.16-.4.54-.6.94-.6.43 0 .78.2.97.57l6.95 14.3c.16.28.16.6 0 .93l-7.58 15.98c-.14.43-.52.7-.97.7zm-12.15-2.15h11.5l7.05-14.9-5.74-11.93z" stroke="#fff" stroke-opacity="0" stroke-width="2" fill="#fff"/><use xlink:href="#s" transform="matrix(1,0,0,1,920,512.5) translate(44.05 14.4)"/><use xlink:href="#o" transform="matrix(1,0,0,1,920,512.5) translate(26.049999999999997 36)"/><path d="M1905.97 775.1v-12.6l-13.3-14.6-21.8 48.1 21.8 48.08 13.3-14.62v-12.7l-4.43 3.08v-6.15l4.43-2.32v-12.7l-4.43.1v-5.68l4.43.2v-12.4l-4.43-2.32v-4.33l4.43.86z" fill="#2e73b8"/><path d="M1868.9 856l23.77-11.88v-96.24L1868.9 736l-26.88 60.96 26.9 59.04z" fill="#5294cf"/><path d="M1835.66 856h33.26V736h-33.26l-17.22 60.96 17.22 59.04z" fill="#2e73b8"/><path d="M1835.64 856l-23.96-11.88-7.52-47.16 7.52-49.08 23.9-11.88.06 120z" fill="#205b99"/><path d="M1901.55 813.76l-8.9 4.33-23.75 5.1h-33.28l-23.22-5.1-.42-.1-.32-.1v-18.1l23.96 1.74h33.27l23.74-1.73 13.36-1.14h-4.45v-5.4h4.34l-13.26-.95-23.74-.76h-33.07l-24.17.58v-18.28h.32l23.85-5.68h33.06l23.74 5.68 8.9 4.7v-2.97l4.46-.38-13.36-9.34-23.74-7.7h-33.07l-24.17 7.98v-18.27L1800 762.5v12.7l3.4.37v3.08l-3.4 1.92v12.7h3.4v5.4l-3.4.08v12.6l3.4 1.93v3.17l-3.4.4v12.6l11.66 14.6V825.8l23.96 7.4h33.27l23.74-7.4 13.36-8.94-4.45-.4v-2.68z" fill="#19486f"/><use xlink:href="#a" transform="matrix(1,0,0,1,1800,855.9999999999999) translate(20.025 14.4)"/><use xlink:href="#t" transform="matrix(1,0,0,1,1800,855.9999999999999) translate(7.074999999999996 36)"/><path d="M783.44 528h60v60h-60v-60z" stroke="#fff" stroke-opacity="0" stroke-width="2" fill="#d6242d"/><path d="M822.5 568.22l1.14-1.14 9.56 9.57-1.13 1.13-9.57-9.56zM793.67 539.37l1.13-1.13 10.6 10.6-1.12 1.14-10.6-10.6zM796.07 574.28l5.6-5.6 1.13 1.13-5.6 5.6-1.13-1.12zM824.07 546.27l5.6-5.6 1.13 1.13-5.6 5.6-1.13-1.13z" stroke="#fff" stroke-opacity="0" stroke-width="1.41" fill="#fff"/><path d="M831.8 557.2c-.15-3.73-1.24-6.9-3.44-9.94l-1.3.95c2 2.77 3 5.6 3.15 9h-1.6v1.6h1.6c-.13 3.43-1.13 6.3-3.14 9.07l1.3.93c2.2-3.06 3.3-6.22 3.45-10h1.6v-1.6zM803.6 544.42c2.77-2 5.63-3 9.04-3.15v1.55h1.6v-1.55c3.4.15 6.26 1.14 9.03 3.15l.97-1.3c-3.07-2.2-6.22-3.3-10-3.45v-1.65h-1.6v1.65c-3.78.14-6.94 1.24-10 3.45zM823.27 571.66c-2.77 2-5.62 3-9.03 3.15v-1.6h-1.6v1.6c-3.4-.14-6.27-1.14-9.03-3.14l-.96 1.3c3.06 2.2 6.22 3.3 10 3.45v1.6h1.6v-1.6c3.78-.14 6.93-1.23 10-3.44zM798.52 568.8l1.3-.95c-2.02-2.76-3-5.62-3.15-9.05h1.6v-1.6h-1.6c.16-3.4 1.15-6.25 3.14-9l-1.28-.95c-2.2 3.04-3.3 6.2-3.45 9.96h-1.6v1.6h1.6c.14 3.77 1.24 6.94 3.45 10zM817.36 547.4c-1.15-.95-2.43-1.4-3.92-1.38-3.1 0-5.6 2.18-5.6 4.88v3.9h-1.6c-.45 0-.8.37-.8.8v11.22c0 .2.08.4.24.56.14.15.33.24.56.24h14.4c.45 0 .8-.37.8-.8v-11.2c0-.23-.08-.4-.23-.55-.15-.18-.34-.26-.56-.26h-1.6v-3.9c-.02-1.4-.6-2.62-1.68-3.5zm-7.92 3.5c0-1.82 1.8-3.3 4-3.3 1.1 0 2.03.32 2.88 1 .72.6 1.1 1.37 1.13 2.3v3.9h-8zm10.4 7.92h-2.4v1.6h2.4v1.6h-2.4v1.6h2.4v2.4h-12.8v-9.6h12.8z" stroke="#fff" stroke-opacity="0" stroke-width="2" fill="#fff"/><path d="M812.64 562.2v2.22h1.6v-2.2c.67-.26 1.15-.74 1.4-1.42.44-1.2-.2-2.56-1.4-3-1.22-.44-2.57.2-3 1.4-.45 1.22.18 2.57 1.4 3zm.8-3.05c.48 0 .87.38.87.86s-.37.88-.85.88c-.47 0-.87-.38-.87-.86V560c0-.47.4-.85.86-.85z" stroke="#fff" stroke-opacity="0" stroke-width="2" fill="#fff"/><use xlink:href="#u" transform="matrix(1,0,0,1,753.4375,597) translate(6.875 14.4)"/><use xlink:href="#v" transform="matrix(1,0,0,1,753.4375,597) translate(52.175 14.4)"/><use xlink:href="#w" transform="matrix(1,0,0,1,753.4375,597) translate(24.549999999999997 36)"/><path d="M1340 148.76h99.5v99.5H1340v-99.5z" stroke="#fff" stroke-opacity="0" stroke-width="2" fill="#3f8624"/><path d="M1421.5 201.88c-.38-2.06-2.74-3.52-4.4-4.6-.5-.32-1.9-.85-2.02-1.3 0-.35 0-.68.12-1l1.34-9.5 1.14-8.45c.32-2.52-.9-4.25-2.98-5.7-4.26-3-9.86-4.2-14.88-5-6.6-1.05-12.4-1.25-19.07-.6-6.04.4-11.06 1.6-16.66 4-2.8 1.33-6.56 3.4-6.05 6.97 1.27 10.76 2.86 21.52 4.33 32.3.63 4.9 1.33 9.82 1.97 14.73.25 2.06 1.4 3.66 3.3 4.45 4.07 2.2 9.16 2.86 13.8 3.26 6.42.6 11.9.4 18.24-.8 3.8-.66 10.93-1.86 11.56-6.64.77-5.9 1.6-11.83 2.35-17.74l.33-1.8c2.16.54 8.33 1.67 7.57-2.58zM1387.8 168c8 0 17.1.93 24.23 4.85 1.14.6 3.68 1.93 2.92 3.6-.76 1.58-3.18 2.38-4.64 2.98-2.15.8-4.12 1.32-6.4 1.8-9.93 1.98-18.7 2.18-28.75.6-4.5-.48-8.26-1.6-12.33-3.6-.95-.6-2.54-1.53-2.1-2.86.32-.73.83-1.26 1.53-1.66 3.1-1.98 5.97-3.18 9.6-3.84 5.47-1.33 10.3-1.93 15.95-1.86zm20.86 55.93c-.26 1.53-2.8 2.33-4 2.73-2.68.93-5.03 1.46-7.83 1.8-6.16.8-11.5.8-17.73 0-3.88-.34-7.12-1.2-10.62-2.93-.95-.4-1.53-1.27-1.6-2.26-1.33-10.56-2.8-21.06-4.25-31.56l-1.53-11.4c3.18 1.72 6.1 2.78 9.67 3.38 3.88.8 7.12 1.2 11.06 1.46 7.63.53 14.18.2 21.74-1.2 4-.6 7.3-1.72 10.87-3.65l-2.8 20.78c-7.12-2.32-12.96-4.65-19.64-7.9-.32-.14-.57-.27-.83-.4-.38-.27-.25-.14-.44-.53-.32-.8-.38-1.33-1.08-2-.64-.46-1.34-.66-2.1-.6-1.65.07-2.92 1.53-2.8 3.2.13 1.6 1.6 2.85 3.25 2.72.44-.07.82-.2 1.33-.4.5-.13.5-.13 1.02.13 6.8 3.32 12.7 5.78 19.9 8.17 1 .33 1 0 1 .87-.05.66-.1 1.26-.24 1.92l-.82 6.3zm-20.47-31.42c0 .4-.52.34-.65.14-.2-.26.64-.6.64-.13zm26.1 9.3l.4-2.9c1.33.8 3.56 1.92 4.2 3.38-1.34.53-3.38-.14-4.6-.47z" stroke="#fff" stroke-opacity="0" stroke-width="2" fill="#fff"/><use xlink:href="#x" transform="matrix(1,0,0,1,1310,257.2623263482484) translate(7.025000000000006 14.4)"/><use xlink:href="#y" transform="matrix(1,0,0,1,1310,257.2623263482484) translate(70.97500000000001 14.4)"/><use xlink:href="#z" transform="matrix(1,0,0,1,1310,257.2623263482484) translate(97.97500000000001 14.4)"/><path d="M1031 340h99V198.5h191.5" stroke="#000" stroke-width="2" fill="none"/><path d="M1031.03 341H1030v-2h1.03z"/><path d="M1336.76 198.5l-14.26 4.65v-9.27z" stroke="#000" stroke-width="2"/><path d="M1251 805h530.5v2H1249V464.5h-59.38v-2H1251zm-220-340.5v-2h69.72v2z"/><path d="M1031.03 464.5H1030v-2h1.03zM1796.76 806l-14.26 4.64v-9.28z"/><path d="M1800 806l-18.5 6v-12zm-16.5 3.26l10.03-3.26-10.03-3.26z"/><use xlink:href="#A" transform="matrix(1,0,0,1,1100.7182629305673,452.7) translate(0 14.4)"/><use xlink:href="#B" transform="matrix(1,0,0,1,1100.7182629305673,452.7) translate(37 14.4)"/><path d="M1031 1140h219V806h531.5" stroke="#000" stroke-width="2" fill="none"/><path d="M1031.03 1141H1030v-2h1.03z"/><path d="M1796.76 806l-14.26 4.64v-9.28z" stroke="#000" stroke-width="2"/><path d="M1031 1000h179V806h571.5" stroke="#000" stroke-width="2" fill="none"/><path d="M1031.03 1001H1030v-2h1.03z"/><path d="M1796.76 806l-14.26 4.64v-9.28z" stroke="#000" stroke-width="2"/><path d="M1031 715.5h139V806h611.5" stroke="#000" stroke-width="2" fill="none"/><path d="M1031.03 716.5H1030v-2h1.03z"/><path d="M1796.76 806l-14.26 4.64v-9.28z" stroke="#000" stroke-width="2"/><path d="M1031 600h179v206h571.5" stroke="#000" stroke-width="2" fill="none"/><path d="M1031.03 601H1030v-2h1.03z"/><path d="M1796.76 806l-14.26 4.64v-9.28z" stroke="#000" stroke-width="2"/><path d="M912.37 129H261v615.5h50.73v2H259V127h653.37zm478.38 18.76h-2V129h-358.68v-2h360.68z"/><path d="M1390.75 148.76h-2v-1.02h2zM327 745.5l-14.27 4.64v-9.28z"/><path d="M330.23 745.5l-18.5 6v-12zm-16.5 3.26l10.03-3.26-10.03-3.26z"/><use xlink:href="#C" transform="matrix(1,0,0,1,912.3722018821023,117.2) translate(0 14.4)"/><use xlink:href="#q" transform="matrix(1,0,0,1,912.3722018821023,117.2) translate(94.85 14.4)"/><path d="M370 684.5V582" stroke="#000" stroke-width="2" fill="none"/><path d="M371 685.5h-2v-1.03h2z"/><path d="M370 566.74l4.64 14.26h-9.28z" stroke="#000" stroke-width="2"/><path d="M410.7 745.5h180.8" stroke="#000" stroke-width="2" fill="none"/><path d="M410.72 746.5h-1.16l.27-2h.9z"/><path d="M606.76 745.5l-14.26 4.64v-9.28z" stroke="#000" stroke-width="2"/><path d="M710 745.5h47.44" stroke="#000" stroke-width="2" fill="none"/><path d="M707.6 746.5H706v-2h2.4zm2.42 0H709v-2H710z"/><path d="M772.7 745.5l-14.26 4.64v-9.28z" stroke="#000" stroke-width="2"/><path d="M813.44 589v100.5" stroke="#000" stroke-width="2" fill="none"/><path d="M814.44 589.03h-2V588h2z"/><path d="M813.44 704.76l-4.64-14.26h9.27z" stroke="#000" stroke-width="2"/><path d="M851.94 745.5h48.53v-30h31.03" stroke="#000" stroke-width="2" fill="none"/><path d="M851.96 746.5h-1.02v-2h1.02z"/><path d="M946.76 715.5l-14.26 4.64v-9.28z" stroke="#000" stroke-width="2"/><path d="M851.94 745.5h48.53V600h31.03" stroke="#000" stroke-width="2" fill="none"/><path d="M851.96 746.5h-1.02v-2h1.02z"/><path d="M946.76 600l-14.26 4.64v-9.28z" stroke="#000" stroke-width="2"/><path d="M851.94 745.5h48.53v-282h31.03" stroke="#000" stroke-width="2" fill="none"/><path d="M851.96 746.5h-1.02v-2h1.02z"/><path d="M946.76 463.5l-14.26 4.64v-9.28z" stroke="#000" stroke-width="2"/><path d="M851.94 745.5h48.53V340h31.03" stroke="#000" stroke-width="2" fill="none"/><path d="M851.96 746.5h-1.02v-2h1.02z"/><path d="M946.76 340l-14.26 4.64v-9.28z" stroke="#000" stroke-width="2"/><path d="M1031 1280h259V806h491.5" stroke="#000" stroke-width="2" fill="none"/><path d="M1031.03 1281H1030v-2h1.03z"/><path d="M1796.76 806l-14.26 4.64v-9.28z" stroke="#000" stroke-width="2"/><path d="M851.94 745.5h48.53v133.63h31.03" stroke="#000" stroke-width="2" fill="none"/><path d="M851.96 746.5h-1.02v-2h1.02z"/><path d="M946.76 879.13l-14.26 4.63v-9.27z" stroke="#000" stroke-width="2"/><path d="M851.94 745.5h48.53V1000h31.03" stroke="#000" stroke-width="2" fill="none"/><path d="M851.96 746.5h-1.02v-2h1.02z"/><path d="M946.76 1000l-14.26 4.64v-9.28z" stroke="#000" stroke-width="2"/><path d="M851.94 745.5h48.53V1140h31.03" stroke="#000" stroke-width="2" fill="none"/><path d="M851.96 746.5h-1.02v-2h1.02z"/><path d="M946.76 1140l-14.26 4.64v-9.28z" stroke="#000" stroke-width="2"/><path d="M851.94 745.5h48.53V1280h31.03" stroke="#000" stroke-width="2" fill="none"/><path d="M851.96 746.5h-1.02v-2h1.02z"/><path d="M946.76 1280l-14.26 4.64v-9.28z" stroke="#000" stroke-width="2"/><path d="M1740 158.5h80v80h-80v-80z" stroke="#fff" stroke-opacity="0" stroke-width="2" fill="#d86613"/><path d="M1804.53 225.18h-13.14c-.44 0-.78-.2-.95-.6l-18.6-38.87h-7.86c-.6 0-1.08-.47-1.08-1.05V172.9c0-.57.47-1.05 1.07-1.05h16.42c.43 0 .77.2.94.58l18.52 38.88h4.65c.6 0 1.07.5 1.07 1.08v11.73c0 .6-.47 1.08-1.07 1.08zm-12.46-2.13h11.4v-9.6h-4.27c-.43 0-.77-.22-.94-.6L1779.74 174h-14.68v9.6h7.47c.42 0 .76.2.98.6z" stroke="#fff" stroke-opacity="0" stroke-width="2" fill="#fff"/><path d="M1769.3 225.18h-13.85c-.38 0-.7-.2-.92-.5-.2-.35-.2-.74-.05-1.06l14.52-30.3c.16-.4.54-.62.94-.62.43 0 .78.23.97.58l6.95 14.3c.16.3.16.6 0 .94l-7.58 15.98c-.14.42-.52.68-.97.68zm-12.15-2.14h11.5l7.05-14.9-5.74-11.93z" stroke="#fff" stroke-opacity="0" stroke-width="2" fill="#fff"/><use xlink:href="#n" transform="matrix(1,0,0,1,1710,247.5123263482484) translate(52.05 14.4)"/><use xlink:href="#D" transform="matrix(1,0,0,1,1710,247.5123263482484) translate(37.099999999999994 36)"/><path d="M480 60h1510v1348H480z" stroke="#232f3e" stroke-width="2" fill="#fff" fill-opacity="0"/><path d="M480 60h56v56h-56V60z" stroke="#fff" stroke-opacity="0" fill="#232f3e"/><path d="M498.22 85.87c-.04.48.05.87.17 1.34.1.4.28.7.48 1.07.04.1.08.22.08.34 0 .2-.12.36-.28.46l-.95.62c-.12.08-.25.13-.37.13-.16 0-.33-.06-.45-.2-.2-.2-.36-.43-.52-.7-.17-.25-.3-.53-.46-.86-1.1 1.37-2.62 2.1-4.4 2.06-1.14.06-2.12-.3-2.95-1.08-.78-.8-1.15-1.76-1.1-2.85-.05-1.23.4-2.28 1.35-3.08 1.07-.85 2.3-1.23 3.66-1.16.57 0 1.02.02 1.6.1.57.1 1.1.2 1.72.33v-1.1c.08-.88-.16-1.67-.7-2.37-.74-.56-1.56-.8-2.46-.7-.53 0-1.03.07-1.6.2-.58.13-1.03.3-1.6.5l-.5.2h-.24c-.2 0-.33-.16-.33-.45v-.75c0-.18.04-.34.12-.5.12-.16.24-.26.4-.33.66-.3 1.2-.5 1.9-.67.77-.2 1.47-.3 2.3-.28 1.47-.13 2.78.26 3.9 1.2.94 1.05 1.35 2.28 1.22 3.67zm-6.07 2.28c.57 0 1.06-.1 1.6-.28.57-.2 1.02-.5 1.44-.96.23-.27.4-.56.48-.93.12-.45.16-.84.16-1.3V84c-.53-.1-.94-.17-1.43-.2H493c-.8-.08-1.55.12-2.2.58-.54.45-.8 1.04-.75 1.73-.04.6.13 1.16.54 1.6.44.38.97.52 1.55.45zm12 1.6c-.22 0-.42-.03-.6-.15-.15-.17-.23-.36-.32-.6l-3.5-11.5-.1-.62c0-.24.1-.37.36-.37h1.47c.2 0 .37.04.57.15.17.18.25.37.3.6l2.5 9.96 2.38-9.93c0-.24.08-.44.28-.6.17-.12.37-.16.58-.15h1.2c.24 0 .4.03.6.15.17.18.25.36.3.6l2.33 9.94 2.56-10c.04-.2.16-.4.33-.58.15-.1.36-.17.56-.14h1.4c.16 0 .33.1.37.3v.31s0 .2-.12.35L514 88.98c-.05.22-.13.42-.3.6-.2.1-.36.14-.57.13h-1.27c-.25.04-.45-.02-.62-.15-.16-.16-.25-.36-.3-.6l-2.3-9.6-2.3 9.6c-.03.24-.1.44-.27.6-.2.13-.4.2-.62.16zm19.2.38c-.82 0-1.5-.07-2.3-.25-.65-.13-1.14-.3-1.72-.6-.2-.1-.37-.23-.45-.42-.08-.14-.12-.28-.12-.43v-.75c0-.3.12-.46.32-.46h.3l.36.16c.58.23 1.03.4 1.6.5.62.14 1.15.2 1.8.2.8.05 1.5-.1 2.2-.5.48-.3.77-.8.72-1.4.05-.4-.12-.76-.36-1.04-.46-.4-.95-.65-1.52-.8l-2.18-.68c-.94-.25-1.73-.73-2.38-1.5-.5-.65-.74-1.35-.74-2.18 0-.6.12-1.08.4-1.6.3-.5.63-.9 1.08-1.22.5-.38.98-.6 1.6-.78.66-.18 1.2-.26 1.9-.25.32-.03.6-.03.97 0l1 .16.8.22.67.26c.16.1.28.22.45.38.08.15.12.3.12.5v.7c0 .32-.12.47-.37.47-.2-.03-.37-.08-.57-.18-.95-.42-1.8-.6-2.88-.58-.7-.04-1.3.1-1.97.4-.5.3-.74.8-.7 1.36 0 .4.13.76.46 1.05.5.4.98.65 1.6.82l2.1.67c.94.24 1.67.7 2.3 1.44.48.64.7 1.3.7 2.1 0 .63-.13 1.17-.38 1.73-.3.55-.62.95-1.1 1.32-.5.4-1 .66-1.6.84-.75.23-1.4.33-2.15.34zM526.1 97.48c-5.6 3.82-11.36 5.58-18.15 5.56-8.54.05-15.82-2.74-22.16-8.45-.5-.42 0-1 .48-.68 7.07 4.05 14.03 5.9 22.2 5.9 6.1-.04 11.3-1.1 16.93-3.47.83-.35 1.52.55.7 1.13z" stroke="#fff" stroke-opacity="0" fill="#fff"/><path d="M528.16 95.2c-.64-.82-4.16-.38-5.75-.2-.46 0-.53-.36-.1-.66 2.8-1.98 7.42-1.4 8-.74.6.67-.14 5.28-2.78 7.5-.4.32-.78.13-.6-.3.54-1.52 1.86-4.83 1.24-5.6z" stroke="#fff" stroke-opacity="0" fill="#fff"/><use xlink:href="#E" transform="matrix(1,0,0,1,551,80) translate(0 14.4)"/><use xlink:href="#F" transform="matrix(1,0,0,1,551,80) translate(45.3 14.4)"/><path d="M1532.36 451.92l14.1-20.44 17.28 20.14-14.88 1.33-16.5-1.03z" fill="#6b3a19"/><path d="M1565.3 471.55l-14.92-1.27-18.02 1.1 14.1 20.42 18.84-20.25z" fill="#fbbf93"/><path d="M1546.44 491.8l-14.08-4.38v-16.05l14.08 1.66 30.06 5.63-30.06 13.14z" fill="#9d5025"/><path d="M1601.1 468.72l-54.65 4.3v18.78l54.66-11.47v-11.6z" fill="#f58536"/><path d="M1619.5 482.2l-18.86-2.3-52 10.6 21.1 29.5 49.75-37.8z" fill="#fbbf93"/><path d="M1546.45 450.26l-14.1 1.68v-16.06l14.1-4.4 36.43 14.9-36.43 3.88zM1529.96 469.52l-9.96-.96v-13.64l9.96-.96 34.92 7.78-34.92 7.78z" fill="#9d5025"/><path d="M1575.5 467.3l-45.55 2.22v-15.56l45.56 2.2v11.15zM1606.55 455.07l-60.1-4.8v-18.8l60.1 12.7v10.9z" fill="#f58536"/><path d="M1619.5 441.26l-18.86 2.28-52-10.6 21.1-29.44 49.75 37.76z" fill="#6b3a19"/><path d="M1619.5 459.68l-18.86.23-52-1.07 21.1-23.9 49.75 24.75z" fill="#6b3a19"/><path d="M1619.5 463.77l-18.86-.23-52 1.05 21.1 23.9 49.75-24.73z" fill="#fbbf93"/><path d="M1569.76 426.8l-21.13 6.15v-19.2l21.13-10.25 40.84 25.77-40.84-2.47z" fill="#9d5025"/><path d="M1619.5 427.63l-49.75-24.13v23.3l49.75 14.47v-13.64z" fill="#f58536"/><path d="M1569.76 458.22l-21.13.62v-19.2l21.13-4.72 40.84 17-40.84 6.3z" fill="#9d5025"/><path d="M1619.5 459.68l-49.75-1.46v-23.3l49.75 11.12v13.64z" fill="#f58536"/><path d="M1569.76 488.5l-21.13-4.7v-19.2l21.13.63 40.84 8.4-40.84 14.88z" fill="#9d5025"/><path d="M1569.75 465.2l49.75-1.42v13.65l-49.75 11.08v-23.3z" fill="#f58536"/><path d="M1569.73 519.94l-21.1-10.24v-19.2l21.1 6.13 43.24-3.32-43.24 26.64z" fill="#9d5025"/><path d="M1619.5 495.87L1569.75 520v-23.37l49.75-14.45v13.7z" fill="#f58536"/><use xlink:href="#G" transform="matrix(1,0,0,1,1520,520) translate(10 14.4)"/><use xlink:href="#H" transform="matrix(1,0,0,1,1520,520) translate(61 14.4)"/><path d="M1570.75 402.5h-2v-115h2zm0-136.6h-2v-22.3H1458v-2h112.75z"/><path d="M1570.75 404l-.95-.48.95.6v.14l-1-.75-1 .5v-1.53h2zM1457 247.23l-14.26-4.63 14.26-4.64z"/><path d="M1458 248.6l-18.5-6 18.5-6zm-12.03-6l10.03 3.26v-6.52z"/><use xlink:href="#I" transform="matrix(1,0,0,1,1479.9,265.89155554892847) translate(0 14.4)"/><use xlink:href="#J" transform="matrix(1,0,0,1,1479.9,265.89155554892847) translate(56.900000000000006 14.4)"/><use xlink:href="#K" transform="matrix(1,0,0,1,1479.9,265.89155554892847) translate(120.75000000000001 14.4)"/><path d="M1291 805h490.5v2H1289V341h-258v-2h260z"/><path d="M1031.03 341H1030v-2h1.03zM1796.76 806l-14.26 4.64v-9.28z"/><path d="M1800 806l-18.5 6v-12zm-16.5 3.26l10.03-3.26-10.03-3.26z"/><path d="M1031 879.13h139V806h611.5" stroke="#000" stroke-width="2" fill="none"/><path d="M1031.03 880.13H1030v-2h1.03z"/><path d="M1796.76 806l-14.26 4.64v-9.28z" stroke="#000" stroke-width="2"/><path d="M1553.1 199.5h-112.6v-2h112.6zm168.4 0H1688v-2h33.5z"/><path d="M1440.53 199.5h-1.03v-2h1.03zM1736.76 198.5l-14.26 4.65v-9.27z"/><path d="M1740 198.5l-18.5 6.02V192.5zm-16.5 3.27l10.03-3.26-10.03-3.25z"/><use xlink:href="#L" transform="matrix(1,0,0,1,1553.0852676791426,187.71232634824838) translate(0 14.4)"/><use xlink:href="#p" transform="matrix(1,0,0,1,1553.0852676791426,187.71232634824838) translate(27 14.4)"/><use xlink:href="#M" transform="matrix(1,0,0,1,1553.0852676791426,187.71232634824838) translate(88.9 14.4)"/><path d="M1571.33 161.7H1458v-2h113.33zm167.67 0h-83.87v-2H1739z"/><path d="M1740 161.7h-1.03v-2h1.03zM1457 165.35l-14.26-4.64 14.26-4.62z"/><path d="M1458 166.73l-18.5-6.02 18.5-6zm-12.03-6.02l10.03 3.27v-6.5z"/><g><use xlink:href="#N" transform="matrix(1,0,0,1,1571.3300748872005,149.91424142272487) translate(0 14.4)"/></g><path d="M1760 440h135v43.5h-135V440z" fill="#876929"/><path d="M1760 440h135v40.53h-135z" fill="#d9a741"/><path d="M1797.46 445.45h14.38v30.57h-14.38v-30.57zM1820.3 445.45h14.38v30.57h-14.38v-30.57zM1843.13 445.45h14.38v30.57h-14.37v-30.57zM1776.66 454.1v13.27l12.32-6.63-12.32-6.63zM1866 454.1v13.27l12.3-6.63-12.3-6.63z" fill="#fff"/><g><use xlink:href="#O" transform="matrix(1,0,0,1,1760,483.5) translate(1.125 14.4)"/><use xlink:href="#P" transform="matrix(1,0,0,1,1760,483.5) translate(94.025 14.4)"/><use xlink:href="#Q" transform="matrix(1,0,0,1,1760,483.5) translate(40.5 36)"/></g><path d="M1760 340h135v43.5h-135V340z" fill="#876929"/><path d="M1760 340h135v40.53h-135z" fill="#d9a741"/><path d="M1797.46 345.45h14.38v30.57h-14.38v-30.57zM1820.3 345.45h14.38v30.57h-14.38v-30.57zM1843.13 345.45h14.38v30.57h-14.37v-30.57zM1776.66 354.1v13.27l12.32-6.63-12.32-6.63zM1866 354.1v13.27l12.3-6.63-12.3-6.63z" fill="#fff"/><g><use xlink:href="#R" transform="matrix(1,0,0,1,1760,383.5) translate(15.649999999999991 14.4)"/><use xlink:href="#P" transform="matrix(1,0,0,1,1760,383.5) translate(79.5 14.4)"/><use xlink:href="#Q" transform="matrix(1,0,0,1,1760,383.5) translate(40.5 36)"/></g><path d="M1638 427.63h51.75v44.12h51.75" stroke="#000" stroke-width="2" fill="none"/><path d="M1622.74 427.63L1637 423v9.27zM1756.76 471.75l-14.26 4.64v-9.3z" stroke="#000" stroke-width="2"/><path d="M1638 427.63h52v-55.88h51.5" stroke="#000" stroke-width="2" fill="none"/><path d="M1622.74 427.63L1637 423v9.27zM1756.76 371.75l-14.26 4.64v-9.3z" stroke="#000" stroke-width="2"/><defs><path d="M205 0l-28-72H64L36 0H1l101-248h38L239 0h-34zm-38-99l-47-123c-12 45-31 82-46 123h93" id="S"/><path d="M210-169c-67 3-38 105-44 169h-31v-121c0-29-5-50-35-48C34-165 62-65 56 0H25l-1-190h30c1 10-1 24 2 32 10-44 99-50 107 0 11-21 27-35 58-36 85-2 47 119 55 194h-31v-121c0-29-5-49-35-48" id="T"/><path d="M141-36C126-15 110 5 73 4 37 3 15-17 15-53c-1-64 63-63 125-63 3-35-9-54-41-54-24 1-41 7-42 31l-33-3c5-37 33-52 76-52 45 0 72 20 72 64v82c-1 20 7 32 28 27v20c-31 9-61-2-59-35zM48-53c0 20 12 33 32 33 41-3 63-29 60-74-43 2-92-5-92 41" id="U"/><path d="M9 0v-24l116-142H16v-24h144v24L44-24h123V0H9" id="V"/><path d="M100-194c62-1 85 37 85 99 1 63-27 99-86 99S16-35 15-95c0-66 28-99 85-99zM99-20c44 1 53-31 53-75 0-43-8-75-51-75s-53 32-53 75 10 74 51 75" id="W"/><path d="M117-194c89-4 53 116 60 194h-32v-121c0-31-8-49-39-48C34-167 62-67 57 0H25l-1-190h30c1 10-1 24 2 32 11-22 29-35 61-36" id="X"/><g id="a"><use transform="matrix(0.05,0,0,0.05,0,0)" xlink:href="#S"/><use transform="matrix(0.05,0,0,0.05,12,0)" xlink:href="#T"/><use transform="matrix(0.05,0,0,0.05,26.950000000000003,0)" xlink:href="#U"/><use transform="matrix(0.05,0,0,0.05,36.95,0)" xlink:href="#V"/><use transform="matrix(0.05,0,0,0.05,45.95,0)" xlink:href="#W"/><use transform="matrix(0.05,0,0,0.05,55.95,0)" xlink:href="#X"/></g><path d="M30-248c87 1 191-15 191 75 0 78-77 80-158 76V0H30v-248zm33 125c57 0 124 11 124-50 0-59-68-47-124-48v98" id="Y"/><path d="M33 0v-248h34V0H33" id="Z"/><g id="b"><use transform="matrix(0.05,0,0,0.05,0,0)" xlink:href="#S"/><use transform="matrix(0.05,0,0,0.05,12,0)" xlink:href="#Y"/><use transform="matrix(0.05,0,0,0.05,24,0)" xlink:href="#Z"/></g><path d="M143 4C61 4 22-44 18-125c-5-107 100-154 193-111 17 8 29 25 37 43l-32 9c-13-25-37-40-76-40-61 0-88 39-88 99 0 61 29 100 91 101 35 0 62-11 79-27v-45h-74v-28h105v86C228-13 192 4 143 4" id="aa"/><path d="M59-47c-2 24 18 29 38 22v24C64 9 27 4 27-40v-127H5v-23h24l9-43h21v43h35v23H59v120" id="ab"/><path d="M100-194c63 0 86 42 84 106H49c0 40 14 67 53 68 26 1 43-12 49-29l28 8c-11 28-37 45-77 45C44 4 14-33 15-96c1-61 26-98 85-98zm52 81c6-60-76-77-97-28-3 7-6 17-6 28h103" id="ac"/><path d="M206 0h-36l-40-164L89 0H53L-1-190h32L70-26l43-164h34l41 164 42-164h31" id="ad"/><path d="M179-190L93 31C79 59 56 82 12 73V49c39 6 53-20 64-50L1-190h34L92-34l54-156h33" id="ae"/><g id="c"><use transform="matrix(0.05,0,0,0.05,0,0)" xlink:href="#aa"/><use transform="matrix(0.05,0,0,0.05,14,0)" xlink:href="#U"/><use transform="matrix(0.05,0,0,0.05,24,0)" xlink:href="#ab"/><use transform="matrix(0.05,0,0,0.05,29,0)" xlink:href="#ac"/><use transform="matrix(0.05,0,0,0.05,39,0)" xlink:href="#ad"/><use transform="matrix(0.05,0,0,0.05,51.95,0)" xlink:href="#U"/><use transform="matrix(0.05,0,0,0.05,61.95,0)" xlink:href="#ae"/></g><path d="M96-169c-40 0-48 33-48 73s9 75 48 75c24 0 41-14 43-38l32 2c-6 37-31 61-74 61-59 0-76-41-82-99-10-93 101-131 147-64 4 7 5 14 7 22l-32 3c-4-21-16-35-41-35" id="af"/><path d="M24 0v-261h32V0H24" id="ag"/><path d="M24-231v-30h32v30H24zM24 0v-190h32V0H24" id="ah"/><g id="d"><use transform="matrix(0.05,0,0,0.05,0,0)" xlink:href="#af"/><use transform="matrix(0.05,0,0,0.05,9,0)" xlink:href="#ag"/><use transform="matrix(0.05,0,0,0.05,12.949999999999998,0)" xlink:href="#ah"/><use transform="matrix(0.05,0,0,0.05,16.9,0)" xlink:href="#ac"/><use transform="matrix(0.05,0,0,0.05,26.899999999999995,0)" xlink:href="#X"/><use transform="matrix(0.05,0,0,0.05,36.9,0)" xlink:href="#ab"/></g><path d="M973-380H363L226 0H28l556-1456h168L1309 0h-197zM421-538h495l-248-681" id="ai"/><path d="M491 20c-241-1-355-148-355-398v-704h185v699c0 164 67 246 200 246 141 0 235-53 282-158v-787h185V0H812l-4-107C736-22 630 20 491 20" id="aj"/><path d="M456 20C285 20 205-92 206-268v-671H9v-143h197v-262h185v262h202v143H391v671c-9 125 92 149 207 118V0c-49 13-96 20-142 20" id="ak"/><path d="M589-945c-131 0-219 81-264 174V0H140v-1536h185v585c82-101 189-151 320-151 229 0 346 129 346 387V0H806v-716c-2-153-65-229-217-229" id="al"/><path d="M574-1476c351 0 454 237 460 615v240c0 217-37 378-111 483S733 20 576 20c-346 0-454-246-461-616v-247c0-214 37-373 111-477s190-156 348-156zm275 905c0-337 59-752-275-753-95 0-160 38-207 107-80 118-66 409-67 625 0 157 22 273 68 348s115 113 208 113c91 0 160-35 204-106s69-182 69-334" id="am"/><g id="f"><use transform="matrix(0.0087890625,0,0,0.0087890625,0,0)" xlink:href="#ai"/><use transform="matrix(0.0087890625,0,0,0.0087890625,11.7421875,0)" xlink:href="#aj"/><use transform="matrix(0.0087890625,0,0,0.0087890625,21.6650390625,0)" xlink:href="#ak"/><use transform="matrix(0.0087890625,0,0,0.0087890625,27.544921875,0)" xlink:href="#al"/><use transform="matrix(0.0087890625,0,0,0.0087890625,37.458984375,0)" xlink:href="#am"/></g><filter id="e" filterUnits="objectBoundingBox" x="-.01" y="-.01" width="1.02" height="1.05"><feOffset result="offOut" in="SourceAlpha" dy="1"/><feGaussianBlur result="blurOut" in="offOut" stdDeviation=".75"/><feColorMatrix result="colorOut" in="blurOut" values="0 0 0 0 0 0 0 0 0 0 0 0 0 0 0 0 0 0 0.4 0"/><feBlend in="SourceGraphic" in2="colorOut"/></filter><g id="g"><use transform="matrix(0.05,0,0,0.05,0,0)" xlink:href="#aa"/><use transform="matrix(0.05,0,0,0.05,14,0)" xlink:href="#ac"/><use transform="matrix(0.05,0,0,0.05,24,0)" xlink:href="#ab"/></g><path d="M212-179c-10-28-35-45-73-45-59 0-87 40-87 99 0 60 29 101 89 101 43 0 62-24 78-52l27 14C228-24 195 4 139 4 59 4 22-46 18-125c-6-104 99-153 187-111 19 9 31 26 39 46" id="an"/><path d="M84 4C-5 8 30-112 23-190h32v120c0 31 7 50 39 49 72-2 45-101 50-169h31l1 190h-30c-1-10 1-25-2-33-11 22-28 36-60 37" id="ao"/><path d="M135-143c-3-34-86-38-87 0 15 53 115 12 119 90S17 21 10-45l28-5c4 36 97 45 98 0-10-56-113-15-118-90-4-57 82-63 122-42 12 7 21 19 24 35" id="ap"/><g id="h"><use transform="matrix(0.05,0,0,0.05,0,0)" xlink:href="#an"/><use transform="matrix(0.05,0,0,0.05,12.950000000000001,0)" xlink:href="#ao"/><use transform="matrix(0.05,0,0,0.05,22.950000000000003,0)" xlink:href="#ah"/><use transform="matrix(0.05,0,0,0.05,26.900000000000002,0)" xlink:href="#ap"/><use transform="matrix(0.05,0,0,0.05,35.900000000000006,0)" xlink:href="#ah"/><use transform="matrix(0.05,0,0,0.05,39.85000000000001,0)" xlink:href="#X"/><use transform="matrix(0.05,0,0,0.05,49.85000000000001,0)" xlink:href="#ac"/><use transform="matrix(0.05,0,0,0.05,59.85,0)" xlink:href="#ap"/></g><path d="M233-177c-1 41-23 64-60 70L243 0h-38l-65-103H63V0H30v-248c88 3 205-21 203 71zM63-129c60-2 137 13 137-47 0-61-80-42-137-45v92" id="aq"/><path d="M114-163C36-179 61-72 57 0H25l-1-190h30c1 12-1 29 2 39 6-27 23-49 58-41v29" id="ar"/><g id="i"><use transform="matrix(0.05,0,0,0.05,0,0)" xlink:href="#aq"/><use transform="matrix(0.05,0,0,0.05,12.950000000000001,0)" xlink:href="#ac"/><use transform="matrix(0.05,0,0,0.05,22.950000000000003,0)" xlink:href="#ap"/><use transform="matrix(0.05,0,0,0.05,31.950000000000003,0)" xlink:href="#ab"/><use transform="matrix(0.05,0,0,0.05,36.95,0)" xlink:href="#U"/><use transform="matrix(0.05,0,0,0.05,46.95,0)" xlink:href="#ao"/><use transform="matrix(0.05,0,0,0.05,56.95,0)" xlink:href="#ar"/><use transform="matrix(0.05,0,0,0.05,62.900000000000006,0)" xlink:href="#U"/><use transform="matrix(0.05,0,0,0.05,72.9,0)" xlink:href="#X"/><use transform="matrix(0.05,0,0,0.05,82.9,0)" xlink:href="#ab"/><use transform="matrix(0.05,0,0,0.05,87.9,0)" xlink:href="#ap"/></g><path d="M108 0H70L1-190h34L89-25l56-165h34" id="as"/><g id="j"><use transform="matrix(0.05,0,0,0.05,0,0)" xlink:href="#aq"/><use transform="matrix(0.05,0,0,0.05,12.950000000000001,0)" xlink:href="#ac"/><use transform="matrix(0.05,0,0,0.05,22.950000000000003,0)" xlink:href="#as"/><use transform="matrix(0.05,0,0,0.05,31.950000000000003,0)" xlink:href="#ah"/><use transform="matrix(0.05,0,0,0.05,35.900000000000006,0)" xlink:href="#ac"/><use transform="matrix(0.05,0,0,0.05,45.900000000000006,0)" xlink:href="#ad"/><use transform="matrix(0.05,0,0,0.05,58.85,0)" xlink:href="#ap"/></g><g id="k"><use transform="matrix(0.05,0,0,0.05,0,0)" xlink:href="#an"/><use transform="matrix(0.05,0,0,0.05,12.950000000000001,0)" xlink:href="#ar"/><use transform="matrix(0.05,0,0,0.05,18.900000000000002,0)" xlink:href="#ac"/><use transform="matrix(0.05,0,0,0.05,28.900000000000002,0)" xlink:href="#U"/><use transform="matrix(0.05,0,0,0.05,38.900000000000006,0)" xlink:href="#ab"/><use transform="matrix(0.05,0,0,0.05,43.900000000000006,0)" xlink:href="#ac"/></g><g id="l"><use transform="matrix(0.05,0,0,0.05,0,0)" xlink:href="#aq"/><use transform="matrix(0.05,0,0,0.05,12.950000000000001,0)" xlink:href="#ac"/><use transform="matrix(0.05,0,0,0.05,22.950000000000003,0)" xlink:href="#as"/><use transform="matrix(0.05,0,0,0.05,31.950000000000003,0)" xlink:href="#ah"/><use transform="matrix(0.05,0,0,0.05,35.900000000000006,0)" xlink:href="#ac"/><use transform="matrix(0.05,0,0,0.05,45.900000000000006,0)" xlink:href="#ad"/></g><path d="M106-169C34-169 62-67 57 0H25v-261h32l-1 103c12-21 28-36 61-36 89 0 53 116 60 194h-32v-121c2-32-8-49-39-48" id="at"/><g id="m"><use transform="matrix(0.05,0,0,0.05,0,0)" xlink:href="#S"/><use transform="matrix(0.05,0,0,0.05,12,0)" xlink:href="#ao"/><use transform="matrix(0.05,0,0,0.05,22,0)" xlink:href="#ab"/><use transform="matrix(0.05,0,0,0.05,27,0)" xlink:href="#at"/><use transform="matrix(0.05,0,0,0.05,37,0)" xlink:href="#W"/><use transform="matrix(0.05,0,0,0.05,47,0)" xlink:href="#ar"/><use transform="matrix(0.05,0,0,0.05,52.95,0)" xlink:href="#ah"/><use transform="matrix(0.05,0,0,0.05,56.900000000000006,0)" xlink:href="#V"/><use transform="matrix(0.05,0,0,0.05,65.9,0)" xlink:href="#ac"/><use transform="matrix(0.05,0,0,0.05,75.9,0)" xlink:href="#ar"/></g><g id="n"><use transform="matrix(0.05,0,0,0.05,0,0)" xlink:href="#an"/><use transform="matrix(0.05,0,0,0.05,12.950000000000001,0)" xlink:href="#ar"/><use transform="matrix(0.05,0,0,0.05,18.900000000000002,0)" xlink:href="#ac"/><use transform="matrix(0.05,0,0,0.05,28.900000000000002,0)" xlink:href="#U"/><use transform="matrix(0.05,0,0,0.05,38.900000000000006,0)" xlink:href="#ab"/><use transform="matrix(0.05,0,0,0.05,43.900000000000006,0)" xlink:href="#ac"/></g><g id="o"><use transform="matrix(0.05,0,0,0.05,0,0)" xlink:href="#aq"/><use transform="matrix(0.05,0,0,0.05,12.950000000000001,0)" xlink:href="#ac"/><use transform="matrix(0.05,0,0,0.05,22.950000000000003,0)" xlink:href="#ap"/><use transform="matrix(0.05,0,0,0.05,31.950000000000003,0)" xlink:href="#ab"/><use transform="matrix(0.05,0,0,0.05,36.95,0)" xlink:href="#U"/><use transform="matrix(0.05,0,0,0.05,46.95,0)" xlink:href="#ao"/><use transform="matrix(0.05,0,0,0.05,56.95,0)" xlink:href="#ar"/><use transform="matrix(0.05,0,0,0.05,62.900000000000006,0)" xlink:href="#U"/><use transform="matrix(0.05,0,0,0.05,72.9,0)" xlink:href="#X"/><use transform="matrix(0.05,0,0,0.05,82.9,0)" xlink:href="#ab"/></g><path d="M232-93c-1 65-40 97-104 97C67 4 28-28 28-90v-158h33c8 89-33 224 67 224 102 0 64-133 71-224h33v155" id="au"/><path d="M115-194c55 1 70 41 70 98S169 2 115 4C84 4 66-9 55-30l1 105H24l-1-265h31l2 30c10-21 28-34 59-34zm-8 174c40 0 45-34 45-75s-6-73-45-74c-42 0-51 32-51 76 0 43 10 73 51 73" id="av"/><path d="M85-194c31 0 48 13 60 33l-1-100h32l1 261h-30c-2-10 0-23-3-31C134-8 116 4 85 4 32 4 16-35 15-94c0-66 23-100 70-100zm9 24c-40 0-46 34-46 75 0 40 6 74 45 74 42 0 51-32 51-76 0-42-9-74-50-73" id="aw"/><g id="p"><use transform="matrix(0.05,0,0,0.05,0,0)" xlink:href="#au"/><use transform="matrix(0.05,0,0,0.05,12.950000000000001,0)" xlink:href="#av"/><use transform="matrix(0.05,0,0,0.05,22.950000000000003,0)" xlink:href="#ag"/><use transform="matrix(0.05,0,0,0.05,26.900000000000002,0)" xlink:href="#W"/><use transform="matrix(0.05,0,0,0.05,36.900000000000006,0)" xlink:href="#U"/><use transform="matrix(0.05,0,0,0.05,46.900000000000006,0)" xlink:href="#aw"/></g><g id="q"><use transform="matrix(0.05,0,0,0.05,0,0)" xlink:href="#au"/><use transform="matrix(0.05,0,0,0.05,12.950000000000001,0)" xlink:href="#ar"/><use transform="matrix(0.05,0,0,0.05,18.900000000000002,0)" xlink:href="#ag"/></g><g id="r"><use transform="matrix(0.05,0,0,0.05,0,0)" xlink:href="#an"/><use transform="matrix(0.05,0,0,0.05,12.950000000000001,0)" xlink:href="#ao"/><use transform="matrix(0.05,0,0,0.05,22.950000000000003,0)" xlink:href="#ah"/><use transform="matrix(0.05,0,0,0.05,26.900000000000002,0)" xlink:href="#ap"/><use transform="matrix(0.05,0,0,0.05,35.900000000000006,0)" xlink:href="#ah"/><use transform="matrix(0.05,0,0,0.05,39.85000000000001,0)" xlink:href="#X"/><use transform="matrix(0.05,0,0,0.05,49.85000000000001,0)" xlink:href="#ac"/></g><path d="M30-248c118-7 216 8 213 122C240-48 200 0 122 0H30v-248zM63-27c89 8 146-16 146-99s-60-101-146-95v194" id="ax"/><g id="s"><use transform="matrix(0.05,0,0,0.05,0,0)" xlink:href="#ax"/><use transform="matrix(0.05,0,0,0.05,12.950000000000001,0)" xlink:href="#ac"/><use transform="matrix(0.05,0,0,0.05,22.950000000000003,0)" xlink:href="#ag"/><use transform="matrix(0.05,0,0,0.05,26.900000000000002,0)" xlink:href="#ac"/><use transform="matrix(0.05,0,0,0.05,36.900000000000006,0)" xlink:href="#ab"/><use transform="matrix(0.05,0,0,0.05,41.900000000000006,0)" xlink:href="#ac"/></g><path d="M160-131c35 5 61 23 61 61C221 17 115-2 30 0v-248c76 3 177-17 177 60 0 33-19 50-47 57zm-97-11c50-1 110 9 110-42 0-47-63-36-110-37v79zm0 115c55-2 124 14 124-45 0-56-70-42-124-44v89" id="ay"/><g id="t"><use transform="matrix(0.05,0,0,0.05,0,0)" xlink:href="#ax"/><use transform="matrix(0.05,0,0,0.05,12.950000000000001,0)" xlink:href="#ae"/><use transform="matrix(0.05,0,0,0.05,21.950000000000003,0)" xlink:href="#X"/><use transform="matrix(0.05,0,0,0.05,31.950000000000003,0)" xlink:href="#U"/><use transform="matrix(0.05,0,0,0.05,41.95,0)" xlink:href="#T"/><use transform="matrix(0.05,0,0,0.05,56.900000000000006,0)" xlink:href="#W"/><use transform="matrix(0.05,0,0,0.05,66.9,0)" xlink:href="#ax"/><use transform="matrix(0.05,0,0,0.05,79.85000000000001,0)" xlink:href="#ay"/></g><path d="M266 0h-40l-56-210L115 0H75L2-248h35L96-30l15-64 43-154h32l59 218 59-218h35" id="az"/><path d="M185-189c-5-48-123-54-124 2 14 75 158 14 163 119 3 78-121 87-175 55-17-10-28-26-33-46l33-7c5 56 141 63 141-1 0-78-155-14-162-118-5-82 145-84 179-34 5 7 8 16 11 25" id="aA"/><g id="u"><use transform="matrix(0.05,0,0,0.05,0,0)" xlink:href="#S"/><use transform="matrix(0.05,0,0,0.05,11.35,0)" xlink:href="#az"/><use transform="matrix(0.05,0,0,0.05,28.299999999999997,0)" xlink:href="#aA"/></g><g id="v"><use transform="matrix(0.05,0,0,0.05,0,0)" xlink:href="#aA"/><use transform="matrix(0.05,0,0,0.05,12,0)" xlink:href="#ac"/><use transform="matrix(0.05,0,0,0.05,22,0)" xlink:href="#af"/><use transform="matrix(0.05,0,0,0.05,31,0)" xlink:href="#ar"/><use transform="matrix(0.05,0,0,0.05,36.95,0)" xlink:href="#ac"/><use transform="matrix(0.05,0,0,0.05,46.95,0)" xlink:href="#ab"/><use transform="matrix(0.05,0,0,0.05,51.95,0)" xlink:href="#ap"/></g><path d="M240 0l2-218c-23 76-54 145-80 218h-23L58-218 59 0H30v-248h44l77 211c21-75 51-140 76-211h43V0h-30" id="aB"/><path d="M177-190C167-65 218 103 67 71c-23-6-38-20-44-43l32-5c15 47 100 32 89-28v-30C133-14 115 1 83 1 29 1 15-40 15-95c0-56 16-97 71-98 29-1 48 16 59 35 1-10 0-23 2-32h30zM94-22c36 0 50-32 50-73 0-42-14-75-50-75-39 0-46 34-46 75s6 73 46 73" id="aC"/><g id="w"><use transform="matrix(0.05,0,0,0.05,0,0)" xlink:href="#aB"/><use transform="matrix(0.05,0,0,0.05,14.950000000000001,0)" xlink:href="#U"/><use transform="matrix(0.05,0,0,0.05,24.950000000000003,0)" xlink:href="#X"/><use transform="matrix(0.05,0,0,0.05,34.95,0)" xlink:href="#U"/><use transform="matrix(0.05,0,0,0.05,44.95,0)" xlink:href="#aC"/><use transform="matrix(0.05,0,0,0.05,54.95,0)" xlink:href="#ac"/><use transform="matrix(0.05,0,0,0.05,64.95,0)" xlink:href="#ar"/></g><g id="x"><use transform="matrix(0.05,0,0,0.05,0,0)" xlink:href="#Z"/><use transform="matrix(0.05,0,0,0.05,5,0)" xlink:href="#T"/><use transform="matrix(0.05,0,0,0.05,19.950000000000003,0)" xlink:href="#U"/><use transform="matrix(0.05,0,0,0.05,29.950000000000003,0)" xlink:href="#aC"/><use transform="matrix(0.05,0,0,0.05,39.95,0)" xlink:href="#ac"/><use transform="matrix(0.05,0,0,0.05,49.95,0)" xlink:href="#ap"/></g><path d="M126-127c33 6 58 20 58 59 0 88-139 92-164 29-3-8-5-16-6-25l32-3c6 27 21 44 54 44 32 0 52-15 52-46 0-38-36-46-79-43v-28c39 1 72-4 72-42 0-27-17-43-46-43-28 0-47 15-49 41l-32-3c6-42 35-63 81-64 48-1 79 21 79 65 0 36-21 52-52 59" id="aD"/><g id="y"><use transform="matrix(0.05,0,0,0.05,0,0)" xlink:href="#aA"/><use transform="matrix(0.05,0,0,0.05,12,0)" xlink:href="#aD"/></g><path d="M143 0L79-87 56-68V0H24v-261h32v163l83-92h37l-77 82L181 0h-38" id="aE"/><g id="z"><use transform="matrix(0.05,0,0,0.05,0,0)" xlink:href="#ay"/><use transform="matrix(0.05,0,0,0.05,12,0)" xlink:href="#ao"/><use transform="matrix(0.05,0,0,0.05,22,0)" xlink:href="#af"/><use transform="matrix(0.05,0,0,0.05,31,0)" xlink:href="#aE"/><use transform="matrix(0.05,0,0,0.05,40,0)" xlink:href="#ac"/><use transform="matrix(0.05,0,0,0.05,50,0)" xlink:href="#ab"/></g><path d="M101-234c-31-9-42 10-38 44h38v23H63V0H32v-167H5v-23h27c-7-52 17-82 69-68v24" id="aF"/><g id="A"><use transform="matrix(0.05,0,0,0.05,0,0)" xlink:href="#aA"/><use transform="matrix(0.05,0,0,0.05,12,0)" xlink:href="#W"/><use transform="matrix(0.05,0,0,0.05,22,0)" xlink:href="#aF"/><use transform="matrix(0.05,0,0,0.05,27,0)" xlink:href="#ab"/></g><g id="B"><use transform="matrix(0.05,0,0,0.05,0,0)" xlink:href="#ax"/><use transform="matrix(0.05,0,0,0.05,12.950000000000001,0)" xlink:href="#ac"/><use transform="matrix(0.05,0,0,0.05,22.950000000000003,0)" xlink:href="#ag"/><use transform="matrix(0.05,0,0,0.05,26.900000000000002,0)" xlink:href="#ac"/><use transform="matrix(0.05,0,0,0.05,36.900000000000006,0)" xlink:href="#ab"/><use transform="matrix(0.05,0,0,0.05,41.900000000000006,0)" xlink:href="#ac"/></g><path d="M16-82v-28h88v28H16" id="aG"/><g id="C"><use transform="matrix(0.05,0,0,0.05,0,0)" xlink:href="#Y"/><use transform="matrix(0.05,0,0,0.05,12,0)" xlink:href="#ar"/><use transform="matrix(0.05,0,0,0.05,17.95,0)" xlink:href="#ac"/><use transform="matrix(0.05,0,0,0.05,27.950000000000003,0)" xlink:href="#aG"/><use transform="matrix(0.05,0,0,0.05,33.9,0)" xlink:href="#aA"/><use transform="matrix(0.05,0,0,0.05,45.9,0)" xlink:href="#ah"/><use transform="matrix(0.05,0,0,0.05,49.85,0)" xlink:href="#aC"/><use transform="matrix(0.05,0,0,0.05,59.85,0)" xlink:href="#X"/><use transform="matrix(0.05,0,0,0.05,69.85,0)" xlink:href="#ac"/><use transform="matrix(0.05,0,0,0.05,79.85,0)" xlink:href="#aw"/></g><path d="M127-220V0H93v-220H8v-28h204v28h-85" id="aH"/><path d="M115-194c53 0 69 39 70 98 0 66-23 100-70 100C84 3 66-7 56-30L54 0H23l1-261h32v101c10-23 28-34 59-34zm-8 174c40 0 45-34 45-75 0-40-5-75-45-74-42 0-51 32-51 76 0 43 10 73 51 73" id="aI"/><g id="D"><use transform="matrix(0.05,0,0,0.05,0,0)" xlink:href="#aH"/><use transform="matrix(0.05,0,0,0.05,10.950000000000001,0)" xlink:href="#at"/><use transform="matrix(0.05,0,0,0.05,20.950000000000003,0)" xlink:href="#ao"/><use transform="matrix(0.05,0,0,0.05,30.950000000000003,0)" xlink:href="#T"/><use transform="matrix(0.05,0,0,0.05,45.900000000000006,0)" xlink:href="#aI"/><use transform="matrix(0.05,0,0,0.05,55.900000000000006,0)" xlink:href="#X"/><use transform="matrix(0.05,0,0,0.05,65.9,0)" xlink:href="#U"/><use transform="matrix(0.05,0,0,0.05,75.9,0)" xlink:href="#ah"/><use transform="matrix(0.05,0,0,0.05,79.85000000000001,0)" xlink:href="#ag"/></g><path fill="#232f3e" d="M205 0l-28-72H64L36 0H1l101-248h38L239 0h-34zm-38-99l-47-123c-12 45-31 82-46 123h93" id="aJ"/><path fill="#232f3e" d="M266 0h-40l-56-210L115 0H75L2-248h35L96-30l15-64 43-154h32l59 218 59-218h35" id="aK"/><path fill="#232f3e" d="M185-189c-5-48-123-54-124 2 14 75 158 14 163 119 3 78-121 87-175 55-17-10-28-26-33-46l33-7c5 56 141 63 141-1 0-78-155-14-162-118-5-82 145-84 179-34 5 7 8 16 11 25" id="aL"/><g id="E"><use transform="matrix(0.05,0,0,0.05,0,0)" xlink:href="#aJ"/><use transform="matrix(0.05,0,0,0.05,11.35,0)" xlink:href="#aK"/><use transform="matrix(0.05,0,0,0.05,28.299999999999997,0)" xlink:href="#aL"/></g><path fill="#232f3e" d="M212-179c-10-28-35-45-73-45-59 0-87 40-87 99 0 60 29 101 89 101 43 0 62-24 78-52l27 14C228-24 195 4 139 4 59 4 22-46 18-125c-6-104 99-153 187-111 19 9 31 26 39 46" id="aM"/><path fill="#232f3e" d="M24 0v-261h32V0H24" id="aN"/><path fill="#232f3e" d="M100-194c62-1 85 37 85 99 1 63-27 99-86 99S16-35 15-95c0-66 28-99 85-99zM99-20c44 1 53-31 53-75 0-43-8-75-51-75s-53 32-53 75 10 74 51 75" id="aO"/><path fill="#232f3e" d="M84 4C-5 8 30-112 23-190h32v120c0 31 7 50 39 49 72-2 45-101 50-169h31l1 190h-30c-1-10 1-25-2-33-11 22-28 36-60 37" id="aP"/><path fill="#232f3e" d="M85-194c31 0 48 13 60 33l-1-100h32l1 261h-30c-2-10 0-23-3-31C134-8 116 4 85 4 32 4 16-35 15-94c0-66 23-100 70-100zm9 24c-40 0-46 34-46 75 0 40 6 74 45 74 42 0 51-32 51-76 0-42-9-74-50-73" id="aQ"/><g id="F"><use transform="matrix(0.05,0,0,0.05,0,0)" xlink:href="#aM"/><use transform="matrix(0.05,0,0,0.05,12.950000000000001,0)" xlink:href="#aN"/><use transform="matrix(0.05,0,0,0.05,16.900000000000002,0)" xlink:href="#aO"/><use transform="matrix(0.05,0,0,0.05,26.900000000000002,0)" xlink:href="#aP"/><use transform="matrix(0.05,0,0,0.05,36.900000000000006,0)" xlink:href="#aQ"/></g><g id="G"><use transform="matrix(0.05,0,0,0.05,0,0)" xlink:href="#ay"/><use transform="matrix(0.05,0,0,0.05,12,0)" xlink:href="#U"/><use transform="matrix(0.05,0,0,0.05,22,0)" xlink:href="#ab"/><use transform="matrix(0.05,0,0,0.05,27,0)" xlink:href="#af"/><use transform="matrix(0.05,0,0,0.05,36,0)" xlink:href="#at"/></g><path d="M153-248C145-148 188 4 80 4 36 3 13-21 6-62l32-5c4 25 16 42 43 43 27 0 39-20 39-49v-147H72v-28h81" id="aR"/><g id="H"><use transform="matrix(0.05,0,0,0.05,0,0)" xlink:href="#aR"/><use transform="matrix(0.05,0,0,0.05,9,0)" xlink:href="#W"/><use transform="matrix(0.05,0,0,0.05,19,0)" xlink:href="#aI"/></g><g id="I"><use transform="matrix(0.05,0,0,0.05,0,0)" xlink:href="#ax"/><use transform="matrix(0.05,0,0,0.05,12.950000000000001,0)" xlink:href="#ac"/><use transform="matrix(0.05,0,0,0.05,22.950000000000003,0)" xlink:href="#ag"/><use transform="matrix(0.05,0,0,0.05,26.900000000000002,0)" xlink:href="#ac"/><use transform="matrix(0.05,0,0,0.05,36.900000000000006,0)" xlink:href="#ab"/><use transform="matrix(0.05,0,0,0.05,41.900000000000006,0)" xlink:href="#ac"/></g><g id="J"><use transform="matrix(0.05,0,0,0.05,0,0)" xlink:href="#aq"/><use transform="matrix(0.05,0,0,0.05,12.950000000000001,0)" xlink:href="#ac"/><use transform="matrix(0.05,0,0,0.05,22.950000000000003,0)" xlink:href="#as"/><use transform="matrix(0.05,0,0,0.05,31.950000000000003,0)" xlink:href="#ah"/><use transform="matrix(0.05,0,0,0.05,35.900000000000006,0)" xlink:href="#ac"/><use transform="matrix(0.05,0,0,0.05,45.900000000000006,0)" xlink:href="#ad"/></g><g id="K"><use transform="matrix(0.05,0,0,0.05,0,0)" xlink:href="#Z"/><use transform="matrix(0.05,0,0,0.05,5,0)" xlink:href="#T"/><use transform="matrix(0.05,0,0,0.05,19.950000000000003,0)" xlink:href="#U"/><use transform="matrix(0.05,0,0,0.05,29.950000000000003,0)" xlink:href="#aC"/><use transform="matrix(0.05,0,0,0.05,39.95,0)" xlink:href="#ac"/><use transform="matrix(0.05,0,0,0.05,49.95,0)" xlink:href="#ap"/></g><g id="L"><use transform="matrix(0.05,0,0,0.05,0,0)" xlink:href="#aA"/><use transform="matrix(0.05,0,0,0.05,12,0)" xlink:href="#aD"/></g><path d="M30 0v-248h187v28H63v79h144v27H63v87h162V0H30" id="aS"/><g id="M"><use transform="matrix(0.05,0,0,0.05,0,0)" xlink:href="#aS"/><use transform="matrix(0.05,0,0,0.05,12,0)" xlink:href="#as"/><use transform="matrix(0.05,0,0,0.05,21,0)" xlink:href="#ac"/><use transform="matrix(0.05,0,0,0.05,31,0)" xlink:href="#X"/><use transform="matrix(0.05,0,0,0.05,41,0)" xlink:href="#ab"/></g><g id="N"><use transform="matrix(0.05,0,0,0.05,0,0)" xlink:href="#aH"/><use transform="matrix(0.05,0,0,0.05,10.950000000000001,0)" xlink:href="#at"/><use transform="matrix(0.05,0,0,0.05,20.950000000000003,0)" xlink:href="#ao"/><use transform="matrix(0.05,0,0,0.05,30.950000000000003,0)" xlink:href="#T"/><use transform="matrix(0.05,0,0,0.05,45.900000000000006,0)" xlink:href="#aI"/><use transform="matrix(0.05,0,0,0.05,55.900000000000006,0)" xlink:href="#X"/><use transform="matrix(0.05,0,0,0.05,65.9,0)" xlink:href="#U"/><use transform="matrix(0.05,0,0,0.05,75.9,0)" xlink:href="#ah"/><use transform="matrix(0.05,0,0,0.05,79.85000000000001,0)" xlink:href="#ag"/></g><g id="O"><use transform="matrix(0.05,0,0,0.05,0,0)" xlink:href="#aq"/><use transform="matrix(0.05,0,0,0.05,12.950000000000001,0)" xlink:href="#ac"/><use transform="matrix(0.05,0,0,0.05,22.950000000000003,0)" xlink:href="#ap"/><use transform="matrix(0.05,0,0,0.05,31.950000000000003,0)" xlink:href="#ab"/><use transform="matrix(0.05,0,0,0.05,36.95,0)" xlink:href="#U"/><use transform="matrix(0.05,0,0,0.05,46.95,0)" xlink:href="#ao"/><use transform="matrix(0.05,0,0,0.05,56.95,0)" xlink:href="#ar"/><use transform="matrix(0.05,0,0,0.05,62.900000000000006,0)" xlink:href="#U"/><use transform="matrix(0.05,0,0,0.05,72.9,0)" xlink:href="#X"/><use transform="matrix(0.05,0,0,0.05,82.9,0)" xlink:href="#ab"/></g><g id="P"><use transform="matrix(0.05,0,0,0.05,0,0)" xlink:href="#aS"/><use transform="matrix(0.05,0,0,0.05,12,0)" xlink:href="#ar"/><use transform="matrix(0.05,0,0,0.05,17.95,0)" xlink:href="#ar"/><use transform="matrix(0.05,0,0,0.05,23.9,0)" xlink:href="#W"/><use transform="matrix(0.05,0,0,0.05,33.9,0)" xlink:href="#ar"/></g><path d="M140-251c81 0 123 46 123 126C263-53 228-8 163 1c7 30 30 48 69 40v23c-55 16-95-15-103-61C56-3 17-48 17-125c0-80 42-126 123-126zm0 227c63 0 89-41 89-101s-29-99-89-99c-61 0-89 39-89 99S79-25 140-24" id="aT"/><g id="Q"><use transform="matrix(0.05,0,0,0.05,0,0)" xlink:href="#aT"/><use transform="matrix(0.05,0,0,0.05,14,0)" xlink:href="#ao"/><use transform="matrix(0.05,0,0,0.05,24,0)" xlink:href="#ac"/><use transform="matrix(0.05,0,0,0.05,34,0)" xlink:href="#ao"/><use transform="matrix(0.05,0,0,0.05,44,0)" xlink:href="#ac"/></g><g id="R"><use transform="matrix(0.05,0,0,0.05,0,0)" xlink:href="#aq"/><use transform="matrix(0.05,0,0,0.05,12.950000000000001,0)" xlink:href="#ac"/><use transform="matrix(0.05,0,0,0.05,22.950000000000003,0)" xlink:href="#as"/><use transform="matrix(0.05,0,0,0.05,31.950000000000003,0)" xlink:href="#ah"/><use transform="matrix(0.05,0,0,0.05,35.900000000000006,0)" xlink:href="#ac"/><use transform="matrix(0.05,0,0,0.05,45.900000000000006,0)" xlink:href="#ad"/></g></defs></g></svg>